# xmcd CD database file
#
# Track frame offsets:
#	150
#	16269
#	36753
#	54181
#	74103
#	89436
#	109330
#	134532
#	152984
#	169869
#	189734
#	207836
#
# Disc length: 3090 seconds
#
# Revision: 0
# Processed by: cddbd v1.5PL3 Copyright (c) Steve Scherf et al.
# Submitted via: CDex 1.51
#
DISCID=ad0c100c
DTITLE=Govinda - Entwined and Entranced
DYEAR=1999
DGENRE=New Age
TTITLE0=Quintessence of Dust
TTITLE1=Erotic Mystics
TTITLE2=Compassion
TTITLE3=Le Zephyr
TTITLE4=Aspetta
TTITLE5=Temple of Spheres
TTITLE6=Next to Godliness
TTITLE7=Floating on These Tears
TTITLE8=In Through Time
TTITLE9=Scripture of the Anima
TTITLE10=Split Between Two Worlds
TTITLE11=Celebration
EXTD=YEAR: 1999
EXTT0=
EXTT1=
EXTT2=
EXTT3=
EXTT4=
EXTT5=
EXTT6=
EXTT7=
EXTT8=
EXTT9=
EXTT10=
EXTT11=
PLAYORDER=
